<?xml version="1.0" standalone="no"?>
<!DOCTYPE svg PUBLIC "-//W3C//DTD SVG 20010904//EN"
 "http://www.w3.org/TR/2001/REC-SVG-20010904/DTD/svg10.dtd">
<svg version="1.0" xmlns="http://www.w3.org/2000/svg"
 width="512.000000pt" height="512.000000pt" viewBox="0 0 512.000000 512.000000"
 preserveAspectRatio="xMidYMid meet">
<metadata>
Created by potrace 1.11, written by Peter Selinger 2001-2013
</metadata>
<g transform="translate(0.000000,512.000000) scale(0.100000,-0.100000)"
fill="#000000" stroke="none">
<path d="M2487 4944 c-1 -1 -48 -4 -105 -8 -299 -19 -621 -108 -897 -249 -308
-156 -567 -368 -800 -654 -5 -7 -15 -19 -22 -27 -7 -8 -46 -65 -88 -128 -140
-208 -263 -483 -324 -728 -27 -107 -33 -136 -47 -230 -3 -19 -7 -46 -9 -60 -9
-49 -19 -226 -18 -315 0 -149 14 -285 47 -465 18 -99 83 -309 133 -430 41
-100 133 -284 145 -288 4 -2 8 -8 8 -13 0 -14 112 -181 174 -259 69 -88 105
-128 212 -234 112 -112 126 -125 244 -213 416 -310 902 -471 1425 -471 94 0
197 4 230 8 33 5 83 11 110 14 49 5 202 36 275 55 88 22 215 67 325 114 111
47 346 174 405 219 14 10 68 51 120 90 127 96 337 308 436 440 229 306 381
652 443 1008 11 63 23 131 26 150 14 76 13 456 -1 567 -65 529 -307 1027 -679
1398 -454 452 -1033 699 -1663 708 -57 1 -104 1 -105 1z"/>
</g>
</svg>
